<svg width="15" height="16" viewBox="0 0 15 16" fill="none" xmlns="http://www.w3.org/2000/svg">
<path d="M8 15C7.4375 15 7 14.5625 7 14H6C6 15.125 6.875 16 8 16C9.09375 16 10 15.125 10 14H9C9 14.5625 8.53125 15 8 15ZM14.5312 10.4688C13.6562 9.65625 13 8.78125 13 5.8125C13 3.34375 11 1.3125 8.5 1.0625V0.5C8.5 0.25 8.25 0 8 0C7.71875 0 7.5 0.25 7.5 0.5V1.0625C4.96875 1.3125 2.96875 3.34375 2.96875 5.8125C2.96875 8.78125 2.3125 9.65625 1.4375 10.4688C1 10.9062 0.875 11.5312 1.09375 12.0938C1.3125 12.6562 1.875 13 2.5 13H13.5C14.0938 13 14.6562 12.6562 14.875 12.0938C15.0938 11.5312 14.9688 10.9062 14.5312 10.4688ZM13.5 12H2.5C2.03125 12 1.8125 11.5 2.125 11.1875C3.21875 10.1562 3.96875 9 3.96875 5.8125C3.96875 3.71875 5.78125 2 8 2C10.1875 2 12 3.71875 12 5.8125C12 9 12.75 10.1562 13.8438 11.1875C14.1562 11.5 13.9375 12 13.5 12Z" fill="#7982A3"/>
</svg>
