<svg width="636" height="274" viewBox="0 0 636 274" fill="none" xmlns="http://www.w3.org/2000/svg">
<rect x="121" width="4" height="4" rx="2" fill="#9165F7"/>
<rect x="121" y="28" width="4" height="4" rx="2" fill="#9165F7"/>
<rect x="121" y="56" width="4" height="4" rx="2" fill="#9165F7"/>
<rect x="121" y="84" width="4" height="4" rx="2" fill="#9165F7"/>
<rect x="149" width="4" height="4" rx="2" fill="#9165F7"/>
<rect x="149" y="28" width="4" height="4" rx="2" fill="#9165F7"/>
<rect x="149" y="56" width="4" height="4" rx="2" fill="#9165F7"/>
<rect x="149" y="84" width="4" height="4" rx="2" fill="#9165F7"/>
<rect x="177" width="4" height="4" rx="2" fill="#9165F7"/>
<rect x="177" y="28" width="4" height="4" rx="2" fill="#9165F7"/>
<rect x="177" y="56" width="4" height="4" rx="2" fill="#9165F7"/>
<rect x="177" y="84" width="4" height="4" rx="2" fill="#9165F7"/>
<rect x="205" width="4" height="4" rx="2" fill="#9165F7"/>
<rect x="205" y="28" width="4" height="4" rx="2" fill="#9165F7"/>
<rect x="205" y="56" width="4" height="4" rx="2" fill="#9165F7"/>
<rect x="205" y="84" width="4" height="4" rx="2" fill="#9165F7"/>
<rect x="233" width="4" height="4" rx="2" fill="#9165F7"/>
<rect x="233" y="28" width="4" height="4" rx="2" fill="#9165F7"/>
<rect x="233" y="56" width="4" height="4" rx="2" fill="#9165F7"/>
<rect x="233" y="84" width="4" height="4" rx="2" fill="#9165F7"/>
<rect x="261" width="4" height="4" rx="2" fill="#9165F7"/>
<rect x="261" y="28" width="4" height="4" rx="2" fill="#9165F7"/>
<rect x="261" y="56" width="4" height="4" rx="2" fill="#9165F7"/>
<rect x="261" y="84" width="4" height="4" rx="2" fill="#9165F7"/>
<rect x="289" width="4" height="4" rx="2" fill="#9165F7"/>
<rect x="289" y="28" width="4" height="4" rx="2" fill="#9165F7"/>
<rect x="289" y="56" width="4" height="4" rx="2" fill="#9165F7"/>
<rect x="289" y="84" width="4" height="4" rx="2" fill="#9165F7"/>
<rect x="317" width="4" height="4" rx="2" fill="#9165F7"/>
<rect x="317" y="28" width="4" height="4" rx="2" fill="#9165F7"/>
<rect x="317" y="56" width="4" height="4" rx="2" fill="#9165F7"/>
<rect x="317" y="84" width="4" height="4" rx="2" fill="#9165F7"/>
<rect x="441.344" y="169.578" width="71.8444" height="83.0333" rx="2.35556" fill="white"/>
<g opacity="0.5">
<path fill-rule="evenodd" clip-rule="evenodd" d="M92.6803 80.0043C94.3471 78.7317 96.335 77.7225 98.497 77.5616C103.094 77.2198 106.926 81.3421 109.162 85.1898C111.569 89.3312 113.469 94.2675 118.269 95.9846C120.476 96.7741 122.785 97.0273 124.985 97.858C127.336 98.7459 129.537 100.038 131.546 101.628C135.234 104.547 138.577 108.543 139.599 113.218C140.498 117.333 139.427 122.114 142.412 125.683C145.526 129.406 151.126 130.43 155.281 132.164C159.984 134.126 165.052 137.167 168.161 141.471C171.141 145.596 172.064 150.951 171.413 155.713C170.111 165.228 164.181 172.888 156.251 177.351C152.883 179.245 148.976 181.232 144.876 180.871C143.608 180.759 142.72 180.332 141.609 179.668C140.612 179.072 139.644 178.866 138.546 178.667C136.135 178.23 133.89 177.072 131.935 175.46C124.342 169.198 120.8 158.139 120.631 148.858C120.591 146.658 120.415 144.62 118.769 142.904C117.05 141.112 114.748 139.922 112.636 138.742C110.548 137.575 108.362 136.572 106.416 135.135C104.378 133.629 102.893 131.683 101.742 129.424C99.5806 125.179 98.9152 120.51 99.2007 115.951C99.4756 111.559 100.21 107.09 97.7348 102.941C95.1119 98.5431 90.1241 96.1337 88.5795 91.0273C87.9399 88.9128 87.7427 86.4834 88.5916 84.5182C89.4057 82.6334 91.1127 81.2011 92.6803 80.0043Z" fill="#E6E8F0"/>
<path fill-rule="evenodd" clip-rule="evenodd" d="M100.658 87.8456C100.336 87.2587 100.42 86.7458 100.733 86.7658C101.145 86.7922 101.527 87.4594 101.864 88.0553C102.901 89.8871 104.042 91.5899 105.254 93.2478C107.774 96.6948 110.446 99.6666 113.057 102.867C115.666 106.064 118.047 109.547 119.896 113.46C121.64 117.15 123.155 120.85 124.894 124.548C126.427 127.808 128.04 131.247 130.265 134.093C132.407 136.833 134.717 138.735 136.932 141.049C141.516 145.839 145.713 151.67 149.501 157.978C151.26 160.907 152.966 163.904 154.37 166.964C155.178 168.726 156.272 171.107 156.348 172.603C156.383 173.293 156.02 173.75 155.331 173.098C154.684 172.488 154.208 171.236 153.818 170.411C152.132 166.837 150.164 163.328 148.077 159.917C146.056 156.613 143.942 153.371 141.639 150.432C139.501 147.705 137.328 145.403 135.087 143.234C132.802 141.023 130.485 138.824 128.351 135.871C126.183 132.873 124.547 129.49 123.065 126.175C121.497 122.668 120.096 119.191 118.707 115.7C117.354 112.298 115.794 109.242 113.622 106.12C109.332 99.9527 104.41 94.6843 100.658 87.8456Z" fill="white"/>
<path fill-rule="evenodd" clip-rule="evenodd" d="M145.897 59.1711C148.609 58.6553 151.585 58.6136 154.345 59.6246C160.214 61.7747 162.865 68.5372 163.679 74.1099C164.555 80.108 164.398 86.7228 169.473 91.3071C171.805 93.4147 174.537 94.9738 176.84 97.1242C179.301 99.4222 181.371 102.094 183.051 104.994C186.136 110.321 188.246 116.671 187.135 122.507C186.156 127.644 182.398 132.445 184.281 138.116C186.246 144.033 192.663 148.276 196.929 152.524C201.757 157.33 206.49 163.555 208.153 170.124C209.748 176.42 208.168 182.968 204.94 187.979C198.489 197.992 187.247 203.36 175.153 204.019C170.018 204.299 164.167 204.384 159.271 201.715C157.758 200.89 156.874 199.918 155.835 198.556C154.904 197.335 153.809 196.569 152.55 195.739C149.786 193.916 147.593 191.372 145.991 188.475C139.768 177.225 141.002 162.8 145.513 152.239C146.582 149.736 147.401 147.341 146.234 144.497C145.015 141.529 142.769 138.917 140.752 136.421C138.759 133.953 136.561 131.617 134.881 128.922C133.121 126.099 132.271 123.087 131.994 119.904C131.474 113.925 133.024 108.291 135.696 103.307C138.27 98.5059 141.452 93.8711 140.496 87.8265C139.482 81.42 134.528 75.9517 135.211 69.3408C135.494 66.6033 136.485 63.7548 138.536 62.0066C140.503 60.33 143.346 59.6563 145.897 59.1711Z" fill="white"/>
<path fill-rule="evenodd" clip-rule="evenodd" d="M148.861 69.2505C148.738 68.4432 149.371 68.0695 149.988 68.3717C150.8 68.7697 150.972 69.7017 151.118 70.531C151.567 73.0799 152.343 75.6102 153.303 78.1655C155.299 83.4783 158.035 88.5134 160.439 93.6929C162.842 98.8681 164.525 104.087 164.74 109.199C164.943 114.018 164.674 118.64 164.859 123.463C165.023 127.714 165.189 132.196 167.131 136.715C169 141.064 171.967 144.833 174.368 148.875C179.338 157.242 182.583 166.169 184.568 175.144C185.49 179.312 186.241 183.49 186.324 187.449C186.372 189.729 186.44 192.81 185.242 194.191C184.689 194.828 183.542 194.899 182.731 193.701C181.97 192.577 182.136 191.047 182.092 189.969C181.899 185.303 181.078 180.437 179.927 175.549C178.812 170.815 177.455 166.051 175.438 161.38C173.566 157.046 171.239 153.052 168.651 149.112C166.015 145.097 163.301 141.062 161.64 136.533C159.952 131.934 159.691 127.481 159.68 123.227C159.669 118.727 159.967 114.404 160.304 110.081C160.633 105.868 160.23 101.77 158.646 97.0586C155.516 87.751 150.292 78.657 148.861 69.2505Z" fill="#E6E8F0"/>
<path fill-rule="evenodd" clip-rule="evenodd" d="M92.1355 130.871C95.9025 128.746 100.541 129.087 104.705 130.934C109.58 133.097 112.81 137.273 116.521 141.033C118.367 142.905 120.593 144.541 123.108 145.102C125.395 145.612 127.435 144.822 129.601 144.48C133.929 143.797 138.686 145.347 142.133 148.57C146.337 152.5 147.729 158.069 150.845 162.697C153.706 166.948 159.253 167.479 163.656 167.807C167.998 168.131 171.953 168.495 175.309 172.003C178.868 175.723 182.068 180.312 183.236 185.311C185.181 193.635 180.364 200.5 174.2 204.619C168.606 208.357 160.832 211.825 153.61 209.604C149.289 208.274 145.973 204.877 143.74 200.896C142.352 198.42 141.339 195.762 140.49 193.092C139.888 191.199 139.431 189.235 138.55 187.425C136.206 182.611 131.847 183.891 127.83 184.471C122.727 185.208 118.012 183.822 113.467 180.751C109.235 177.891 105.805 173.937 104.34 168.987C103.592 166.46 103.435 163.873 103.828 161.375C104.001 160.275 104.504 159.156 104.594 158.053C104.678 157.023 103.992 156.136 103.295 155.378C100.073 151.878 95.4936 150.057 92.1809 146.618C89.1906 143.513 87.0126 138.779 88.5842 134.802C89.2632 133.083 90.58 131.763 92.1355 130.871Z" fill="white"/>
<path fill-rule="evenodd" clip-rule="evenodd" d="M101.197 141.427C106.971 144.063 111.861 149.611 116.102 155.321C118.48 158.524 120.734 162.071 123.549 164.837C125.958 167.204 128.647 168.447 131.295 169.55C136.627 171.77 142.304 173.855 147.01 179.082C149.771 182.15 151.86 185.83 154.766 188.746C157.409 191.397 160.442 193.708 163.403 195.459C165.787 196.869 168.132 197.599 170.511 198.809C171.236 199.179 172.292 199.731 172.727 200.647C173.236 201.72 172.646 202.562 171.973 202.79C170.405 203.322 167.951 202.12 166.111 201.283C163.421 200.06 160.814 198.552 158.222 196.639C155.343 194.513 152.537 192.092 150.064 189.202C147.497 186.204 145.356 182.723 142.434 180.153C137.517 175.829 132.17 174.913 127.04 172.411C120.648 169.293 116.749 162.698 112.764 156.268C110.575 152.734 108.08 148.758 104.808 146.384C103.559 145.477 101.838 145.004 100.721 143.771C99.6981 142.641 99.7567 140.769 101.197 141.427Z" fill="#E6E8F0"/>
</g>
<g opacity="0.5">
<path fill-rule="evenodd" clip-rule="evenodd" d="M553.683 73.9522C552.57 72.7134 551.187 71.6154 549.582 71.1199C546.17 70.0664 542.851 72.4762 540.759 74.958C538.507 77.6292 536.55 80.9816 532.763 81.4288C531.023 81.6345 529.263 81.4223 527.523 81.6599C525.663 81.9139 523.873 82.4958 522.195 83.3326C519.113 84.8699 516.174 87.27 514.904 90.5794C513.786 93.4933 514.076 97.2458 511.452 99.3896C508.714 101.626 504.403 101.417 501.098 101.989C497.359 102.636 493.228 104.024 490.432 106.695C487.752 109.254 486.483 113.089 486.459 116.754C486.411 124.078 490.035 130.822 495.504 135.528C497.827 137.526 500.544 139.687 503.66 140.13C504.622 140.266 505.335 140.102 506.24 139.8C507.052 139.528 507.801 139.543 508.646 139.585C510.502 139.677 512.311 139.204 513.951 138.341C520.323 134.988 524.171 127.354 525.298 120.46C525.564 118.826 525.915 117.336 527.336 116.342C528.818 115.304 530.673 114.816 532.385 114.302C534.077 113.794 535.825 113.426 537.44 112.692C539.132 111.922 540.455 110.729 541.562 109.243C543.641 106.453 544.643 103.085 544.92 99.6344C545.186 96.3107 545.117 92.8496 547.421 90.1842C549.862 87.3592 553.864 86.4281 555.573 82.8871C556.28 81.4209 556.69 79.643 556.265 78.0295C555.857 76.4821 554.73 75.1173 553.683 73.9522Z" fill="#E6E8F0"/>
<path fill-rule="evenodd" clip-rule="evenodd" d="M547.538 78.1181C547.852 77.7323 547.843 77.3295 547.597 77.2882C547.273 77.2338 546.904 77.6694 546.577 78.0591C545.571 79.257 544.498 80.3388 543.375 81.3738C541.041 83.5257 538.639 85.2907 536.261 87.2396C533.884 89.1868 531.653 91.3907 529.79 94.016C528.033 96.4912 526.452 99.0157 524.698 101.498C523.152 103.686 521.523 105.996 519.483 107.746C517.519 109.432 515.515 110.454 513.541 111.804C509.455 114.599 505.557 118.25 501.925 122.337C500.238 124.234 498.586 126.193 497.161 128.253C496.341 129.44 495.232 131.042 495.01 132.16C494.908 132.676 495.141 133.086 495.748 132.718C496.318 132.373 496.824 131.512 497.216 130.959C498.916 128.561 500.829 126.262 502.822 124.06C504.753 121.926 506.75 119.856 508.861 118.049C510.82 116.373 512.76 115.024 514.74 113.788C516.757 112.529 518.799 111.284 520.78 109.436C522.792 107.56 524.431 105.297 525.944 103.058C527.545 100.689 529.013 98.313 530.472 95.9238C531.894 93.5956 533.44 91.566 535.468 89.5974C539.475 85.708 543.877 82.6122 547.538 78.1181Z" fill="white"/>
<path fill-rule="evenodd" clip-rule="evenodd" d="M516.111 50.1546C514.14 49.3012 511.921 48.755 509.751 49.0296C505.136 49.6135 502.43 54.187 501.225 58.1931C499.927 62.505 499.335 67.4546 495.052 69.9876C493.084 71.1522 490.876 71.8395 488.924 73.041C486.839 74.325 485.007 75.955 483.441 77.8223C480.565 81.2523 478.308 85.6128 478.512 90.1475C478.692 94.14 480.985 98.3632 478.97 102.258C476.868 106.32 471.619 108.367 467.976 110.789C463.854 113.53 459.651 117.343 457.704 121.944C455.838 126.353 456.315 131.499 458.19 135.787C461.935 144.355 469.758 150.296 478.722 152.88C482.529 153.977 486.89 155.053 490.834 153.915C492.053 153.563 492.818 152.992 493.74 152.159C494.566 151.411 495.467 151.031 496.496 150.631C498.757 149.753 500.667 148.239 502.175 146.361C508.031 139.067 508.655 128.118 506.418 119.478C505.888 117.431 505.533 115.506 506.709 113.592C507.938 111.594 509.896 110.04 511.671 108.531C513.424 107.04 515.317 105.682 516.861 103.968C518.478 102.172 519.436 100.077 519.984 97.7562C521.014 93.3967 520.46 88.9364 518.998 84.7646C517.591 80.7463 515.71 76.7464 517.073 72.4138C518.517 67.8218 522.804 64.6101 523.003 59.5723C523.085 57.4863 522.65 55.1949 521.306 53.5389C520.016 51.9508 517.964 50.9572 516.111 50.1546Z" fill="white"/>
<path fill-rule="evenodd" clip-rule="evenodd" d="M513.428 57.1969C513.609 56.6133 513.163 56.22 512.656 56.3364C511.989 56.4897 511.757 57.158 511.556 57.7539C510.937 59.5855 510.069 61.3446 509.057 63.0895C506.953 66.7175 504.31 70.0051 501.906 73.4601C499.504 76.9123 497.65 80.5254 496.936 84.321C496.263 87.8997 495.975 91.4143 495.315 94.9986C494.733 98.1577 494.125 101.49 492.147 104.532C490.244 107.46 487.559 109.756 485.28 112.358C480.562 117.746 477.11 123.861 474.621 130.238C473.465 133.199 472.44 136.199 471.951 139.153C471.67 140.854 471.287 143.153 472.06 144.403C472.416 144.98 473.291 145.238 474.043 144.484C474.748 143.777 474.785 142.6 474.935 141.8C475.583 138.334 476.736 134.831 478.145 131.371C479.51 128.02 481.065 124.689 483.116 121.547C485.02 118.63 487.237 116.051 489.649 113.558C492.106 111.018 494.625 108.476 496.388 105.376C498.179 102.228 498.857 98.9355 499.322 95.7465C499.813 92.3735 500.048 89.0783 500.252 85.7753C500.451 82.5568 501.2 79.5552 502.924 76.3049C506.328 69.8834 511.319 63.9963 513.428 57.1969Z" fill="#E6E8F0"/>
<path fill-rule="evenodd" clip-rule="evenodd" d="M547.185 111.838C544.606 109.61 541.115 109.062 537.815 109.715C533.952 110.479 531.1 113.023 527.933 115.176C526.357 116.247 524.525 117.078 522.591 117.061C520.833 117.045 519.398 116.105 517.821 115.477C514.67 114.222 510.96 114.552 508.048 116.35C504.496 118.544 502.864 122.44 500.048 125.34C497.462 128.004 493.273 127.44 489.958 126.923C486.689 126.414 483.704 126.001 480.829 128.028C477.78 130.177 474.905 133.032 473.501 136.544C471.162 142.392 474.016 148.323 478.167 152.448C481.935 156.191 487.355 160.109 492.972 159.707C496.333 159.465 499.166 157.514 501.256 154.943C502.555 153.343 503.593 151.544 504.511 149.707C505.162 148.405 505.713 147.025 506.562 145.833C508.823 142.662 511.934 144.365 514.863 145.49C518.586 146.918 522.247 146.704 525.961 145.207C529.419 143.814 532.397 141.468 534.018 138.045C534.845 136.296 535.239 134.402 535.213 132.478C535.201 131.632 534.947 130.714 534.998 129.879C535.045 129.099 535.651 128.559 536.251 128.116C539.025 126.072 542.632 125.511 545.467 123.528C548.027 121.738 550.156 118.597 549.41 115.372C549.088 113.978 548.248 112.769 547.185 111.838Z" fill="white"/>
<path fill-rule="evenodd" clip-rule="evenodd" d="M539.449 117.838C534.811 118.811 530.523 122.127 526.707 125.678C524.568 127.669 522.484 129.942 520.062 131.529C517.989 132.888 515.828 133.352 513.712 133.719C509.452 134.457 504.946 135.033 500.833 138.14C498.418 139.963 496.445 142.364 493.938 144.048C491.659 145.579 489.121 146.787 486.7 147.585C484.75 148.229 482.903 148.369 480.979 148.863C480.392 149.014 479.536 149.244 479.109 149.857C478.609 150.574 478.962 151.31 479.445 151.599C480.569 152.272 482.55 151.797 484.027 151.489C486.187 151.039 488.316 150.362 490.478 149.376C492.878 148.281 495.256 146.951 497.434 145.212C499.693 143.407 501.685 141.164 504.166 139.743C508.341 137.351 512.471 137.596 516.61 136.611C521.766 135.384 525.42 131.109 529.121 126.972C531.154 124.698 533.466 122.146 536.19 120.933C537.23 120.469 538.578 120.414 539.554 119.683C540.448 119.012 540.606 117.595 539.449 117.838Z" fill="#E6E8F0"/>
</g>
<rect x="165.744" y="20" width="325.067" height="204.933" rx="4.71111" fill="#E6E8F0"/>
<path d="M165.744 24.7111C165.744 22.1092 167.853 20 170.455 20H486.1C488.702 20 490.811 22.1092 490.811 24.7111V31.1889H165.744V24.7111Z" fill="#BCC0CC"/>
<rect x="173.988" y="38.8447" width="71.8444" height="83.0333" rx="2.35556" fill="#F8F8FF"/>
<rect x="173.988" y="127.767" width="71.8444" height="83.0333" rx="2.35556" fill="#F8F8FF"/>
<rect x="252.899" y="38.8447" width="71.8444" height="83.0333" rx="2.35556" fill="#F8F8FF"/>
<rect x="252.899" y="127.767" width="71.8444" height="83.0333" rx="2.35556" fill="#F8F8FF"/>
<rect x="331.811" y="38.8447" width="71.8444" height="83.0333" rx="2.35556" fill="#F8F8FF"/>
<rect x="331.811" y="127.767" width="71.8444" height="83.0333" rx="2.35556" fill="#F8F8FF"/>
<rect x="410.722" y="38.8447" width="71.8444" height="83.0333" rx="2.35556" fill="#F8F8FF"/>
<path fill-rule="evenodd" clip-rule="evenodd" d="M488.164 71.793C489.218 68.8849 489.502 65.5548 488.219 62.1947C484.522 52.5133 473.326 57.4283 472.58 62.9206C471.833 68.4128 476.074 80.9215 479.339 81.1148C480.641 81.1919 482.905 79.7382 484.922 77.3483L487.464 90.9196L497.033 88.7003L488.164 71.793Z" fill="url(#paint0_linear)"/>
<path fill-rule="evenodd" clip-rule="evenodd" d="M485.589 71.9322C487.678 74.3023 490.056 75.8932 491.823 75.4677C495.179 74.6595 496.084 69.1893 494.492 63.9258C494.436 63.7409 494.377 63.558 494.316 63.3772C498.669 65.1803 502.989 69.7607 507.686 68.6294C514.076 67.0904 512.361 52.4153 503.433 54.5655C497.361 56.0278 494.667 57.7131 492.525 59.7614C491.545 58.322 490.374 57.1955 489.15 56.5066C488.838 56.2818 488.408 56.0982 487.882 55.9586C487.557 55.8605 487.232 55.7953 486.908 55.7651C485.168 55.5165 482.787 55.6189 480.246 56.1281C479.772 56.2232 479.31 56.3289 478.862 56.4437C478.074 53.8631 475.521 52.2348 473.153 52.8052C470.78 53.3767 469.491 55.9388 470.274 58.5279C471.032 61.0318 473.449 62.6439 475.754 62.2305C477.181 62.3546 478.942 62.274 480.829 61.9645C480.872 62.743 481.027 63.6019 481.313 64.5459C481.565 65.3795 481.917 66.2433 482.343 67.1035C482.587 66.4879 483.02 66.0202 483.563 65.8893C485.083 65.5233 486.553 66.6327 486.991 68.0813C487.547 69.9196 486.977 71.4838 485.589 71.9322Z" fill="#1F2331"/>
<path fill-rule="evenodd" clip-rule="evenodd" d="M510.616 128.196L493.79 186.176L485.876 229.709H477.933L485.862 128.196H510.616Z" fill="url(#paint1_linear)"/>
<path fill-rule="evenodd" clip-rule="evenodd" d="M518.178 128.196C517.004 158.317 517.467 174.745 517.73 177.482C517.993 180.218 519.484 198.546 529.649 230.627H521.388C507.926 199.851 503.226 181.523 501.682 177.482C500.138 173.44 495.578 157.012 488.921 128.196H518.178Z" fill="url(#paint2_linear)"/>
<path fill-rule="evenodd" clip-rule="evenodd" d="M510.978 128.196C506.601 148.147 499.031 179.994 488.268 223.737H476.65C475.792 178.839 479.443 149.289 485.764 128.196H510.978Z" fill="#7982A3"/>
<path fill-rule="evenodd" clip-rule="evenodd" d="M518.236 128.196C517.087 158.317 520.066 187.991 529.297 224.206H516.901C503.414 193.889 493.748 164.361 487.142 128.196H518.236Z" fill="#BCC0CC"/>
<path fill-rule="evenodd" clip-rule="evenodd" d="M530.827 236.599L530.371 229.25C527.702 230.03 524.359 229.724 520.343 228.331C516.023 231.39 510.586 233.48 504.031 234.598C503.531 234.684 503.195 235.158 503.28 235.658C503.285 235.691 503.293 235.723 503.302 235.754L503.932 237.977H520.343H529.915L530.827 236.599Z" fill="#1F2331"/>
<path fill-rule="evenodd" clip-rule="evenodd" d="M487.649 236.599L487.194 229.25C484.525 230.03 481.182 229.724 477.165 228.331C472.846 231.39 467.408 233.48 460.853 234.598C460.353 234.684 460.017 235.158 460.102 235.658C460.108 235.691 460.115 235.723 460.124 235.754L460.754 237.977H477.165H486.738L487.649 236.599Z" fill="#1F2331"/>
<path fill-rule="evenodd" clip-rule="evenodd" d="M477.206 103.032L460.07 96.4081C456.861 93.5674 453.839 91.442 451.003 90.0319C450.179 89.8102 448.819 89.8073 450.535 91.9595C452.25 94.1117 453.969 96.4497 453.49 97.2663C453.01 98.0829 451.236 97.3144 450.734 98.6263C450.399 99.501 453.335 100.355 459.543 101.188L472.896 110.371L477.206 103.032ZM454.819 114.233L447.289 111.311C445.556 107.621 444.032 105.864 442.716 106.039C441.606 105.692 444.359 110.269 442.364 110.14C440.368 110.01 434.946 107.016 434.299 107.89C433.341 109.183 435.105 112.438 436.703 113.948C439.69 116.769 441.844 117.561 446.909 118.257C449.557 118.62 452.562 119.7 455.923 121.496L454.819 114.233Z" fill="url(#paint3_linear)"/>
<path fill-rule="evenodd" clip-rule="evenodd" d="M484.671 99.7706C479.323 100.594 471.953 100.477 463.266 96.1746L461.799 104.351C468.218 109.481 476.552 113.187 482.948 111.907C487.988 110.897 489.183 103.377 484.671 99.7706Z" fill="url(#paint4_linear)"/>
<path fill-rule="evenodd" clip-rule="evenodd" d="M479.473 111.232C474.144 113.593 464.32 113.26 450.003 110.234C448.213 118.011 447.762 123.429 448.65 126.49C461.351 131.111 471.696 132.459 479.776 131.423C480.573 136.558 482.156 141.319 485.022 145.453C490.914 153.952 512.658 141.943 520.898 142.402C522.3 124.496 511.299 118.98 509.025 108.005C506.534 95.987 493.677 78.8608 492.348 79.0631L480.224 80.9076C481.45 90.1888 480.173 100.818 479.473 111.232Z" fill="url(#paint5_linear)"/>
<path fill-rule="evenodd" clip-rule="evenodd" d="M173.795 106.312C171.808 103.803 170.463 100.727 170.688 97.2811C171.336 87.3517 184.181 89.536 186.679 94.5475C189.178 99.559 188.881 112.271 185.652 113.167C184.364 113.524 181.621 112.649 178.828 110.838L180.581 124.18H170.232L173.795 106.312Z" fill="url(#paint6_linear)"/>
<path fill-rule="evenodd" clip-rule="evenodd" d="M191.264 87.6002C191.049 86.7897 190.473 86.0957 189.696 85.8898C189.508 85.8399 189.313 85.8197 189.12 85.8281C189.05 85.8311 189.03 85.8527 188.998 85.8003C188.974 85.7616 188.973 85.6668 188.963 85.6212C188.933 85.4795 188.894 85.3395 188.846 85.2031C188.684 84.7381 188.411 84.3265 188.081 83.9797C187.465 83.3311 186.633 82.8834 185.769 82.8024C185.296 82.7581 184.826 82.8409 184.378 83.0065C184.147 83.0922 183.922 83.199 183.704 83.317C183.638 83.3526 183.424 83.5266 183.358 83.5153C183.285 83.5029 183.138 83.3077 183.079 83.2587C182.345 82.653 181.439 82.4149 180.526 82.422C179.494 82.4304 178.501 82.4858 177.641 83.1624C177.459 83.3056 177.285 83.4625 177.12 83.6276C177.033 83.7145 176.949 83.8047 176.869 83.8987C176.82 83.9553 176.773 84.0133 176.728 84.0728C176.65 84.1738 176.663 84.207 176.555 84.1365C176.141 83.8659 175.661 83.7393 175.178 83.8032C174.891 83.8412 174.612 83.9339 174.347 84.0559C174.257 84.0974 174.048 84.2631 173.952 84.2647C173.856 84.2663 173.65 84.1127 173.552 84.0737C173.021 83.8628 172.449 83.8108 171.891 83.9082C171.315 84.0088 170.75 84.2559 170.262 84.5974C170.027 84.7616 169.823 84.9436 169.658 85.1879C169.587 85.2934 169.523 85.4049 169.443 85.5027C169.396 85.5599 169.302 85.6187 169.277 85.6911C169.292 85.6478 168.648 85.3803 168.587 85.3633C168.263 85.2722 167.933 85.2906 167.615 85.403C167.019 85.6143 166.506 86.0882 166.084 86.5741C165.867 86.8236 165.678 87.0995 165.517 87.3933C165.44 87.5341 165.369 87.6789 165.305 87.8268C165.273 87.8984 165.253 87.988 165.211 88.0526C165.158 88.1357 165.123 88.1373 165.026 88.1736C164.538 88.3577 164.093 88.6693 163.754 89.0904C163.411 89.5164 163.188 90.041 163.095 90.5934C163.09 90.626 163.086 90.7608 163.069 90.7784C163.044 90.8027 162.946 90.792 162.909 90.7967C162.78 90.8129 162.653 90.8371 162.527 90.8692C162.294 90.9284 162.068 91.0154 161.854 91.1293C161.02 91.5733 160.424 92.4057 160.132 93.3423C159.826 94.3252 159.831 95.4513 160.197 96.4159C160.256 96.5716 160.327 96.7229 160.409 96.8659C160.46 96.9537 160.476 96.954 160.443 97.0461C160.407 97.1486 160.34 97.2482 160.296 97.3484C160.154 97.6752 160.054 98.0219 159.992 98.376C159.888 98.9567 159.837 99.5671 159.939 100.152C159.986 100.424 160.069 100.69 160.194 100.932C160.258 101.055 160.333 101.172 160.417 101.28C160.461 101.337 160.508 101.39 160.557 101.442C160.585 101.471 160.621 101.497 160.645 101.53C160.703 101.61 160.715 101.544 160.685 101.661C160.643 101.826 160.549 101.988 160.491 102.148C160.431 102.312 160.377 102.479 160.328 102.648C160.228 102.989 160.143 103.337 160.09 103.691C159.989 104.369 160.007 105.093 160.305 105.716C160.433 105.983 160.616 106.216 160.838 106.398C160.947 106.487 161.064 106.564 161.188 106.627C161.251 106.659 161.332 106.673 161.361 106.739C161.392 106.81 161.346 106.951 161.336 107.031C161.244 107.721 161.198 108.446 161.389 109.123C161.564 109.746 161.951 110.296 162.453 110.661C163.428 111.367 164.741 111.328 165.765 110.762C166.032 110.614 166.281 110.431 166.504 110.215C167.071 111.037 168.238 111.011 169.067 110.777C170.1 110.485 170.928 109.712 171.405 108.697C172.058 109.552 173.428 109.275 173.881 108.347C173.992 108.12 174.057 107.87 174.09 107.617C174.107 107.484 174.096 107.349 174.109 107.217C174.125 107.049 174.23 106.885 174.29 106.722C174.407 106.406 174.479 106.078 174.482 105.736C174.484 105.558 174.463 105.384 174.447 105.207C174.433 105.048 174.474 104.899 174.497 104.742C174.233 104.789 173.91 104.712 173.66 104.629C173.416 104.548 173.186 104.335 173.013 104.14C172.612 103.687 172.367 103.093 172.199 102.502C171.831 101.205 171.982 99.6491 173.194 98.9373C173.759 98.6057 175.451 98.6068 176.124 98.7707C176.831 98.943 177.633 100.622 177.672 100.78C177.697 100.878 177.684 100.999 177.768 101.064C177.951 101.207 178.253 100.958 178.389 100.836C178.622 100.624 178.788 100.343 178.932 100.058C179.246 99.436 179.499 98.7694 179.678 98.0889C179.816 97.5642 179.904 97.0232 180.084 96.512C180.264 96.0032 180.546 95.5485 180.986 95.2603C181.464 94.9468 182.012 94.7817 182.537 94.5847C183.057 94.3894 183.568 94.1508 183.972 93.7365C184.06 93.6454 184.146 93.5486 184.218 93.4413C184.274 93.3566 184.33 93.1945 184.416 93.1408C184.549 93.0573 184.744 93.2745 184.859 93.3534C185.429 93.7425 185.904 94.2852 186.287 94.878C186.668 95.4676 186.98 96.0349 187.234 96.6933C187.423 97.1816 187.54 97.8069 187.872 98.2071C188.02 98.3858 189.12 98.4939 189.476 98.3379C189.832 98.1819 190.231 97.7768 190.351 97.523C190.473 97.2631 190.502 96.9777 190.45 96.6933C190.419 96.5259 190.357 96.3696 190.322 96.2053C190.293 96.0672 190.267 95.9367 190.205 95.8102C190.086 95.5705 189.884 95.3983 189.64 95.3262C189.894 95.0745 190.104 94.7733 190.25 94.4366C190.401 94.0868 190.529 93.6614 190.565 93.2774C190.595 92.9656 190.549 92.6425 190.391 92.3745C190.224 92.0934 189.929 91.91 189.674 91.7347C190.064 91.4066 190.397 91.0077 190.672 90.566C191.205 89.707 191.535 88.6243 191.264 87.6002Z" fill="#1F2331"/>
<path fill-rule="evenodd" clip-rule="evenodd" d="M166.814 162.575L187.547 221.606L202.078 265.114H210.364L190.389 162.575L166.814 162.575Z" fill="#7982A3"/>
<path fill-rule="evenodd" clip-rule="evenodd" d="M161.691 162.575C161.466 182.83 161.629 210.099 161.104 211.362C160.754 212.204 149.866 221.794 128.439 240.133L132.71 247.947C158.148 230.296 171.517 220.294 172.818 217.942C174.768 214.414 184.569 181.952 189.668 162.575H161.691Z" fill="#BCC0CC"/>
<path fill-rule="evenodd" clip-rule="evenodd" d="M120.923 245.21L127.934 239.486L133.823 247.014C134.372 252.61 136.202 258.911 139.312 265.916L138.03 267.075L127.373 253.454L124.368 248.215L123.727 248.794L120.923 245.21Z" fill="#1F2331"/>
<path fill-rule="evenodd" clip-rule="evenodd" d="M201.31 273.466L201.741 263.723H210.796C215.089 266.971 220.695 269.6 227.612 271.61V273.466H211.227L205.621 272.538V273.466H201.31Z" fill="#1F2331"/>
<path fill-rule="evenodd" clip-rule="evenodd" d="M203.363 156.706L217.117 167.574C220.848 168.657 223.964 170.005 226.467 171.617C227.058 172.197 227.773 173.371 225.321 173.168C222.869 172.965 220.281 172.87 219.943 173.77C219.605 174.67 221.089 175.746 220.405 176.96C219.949 177.77 217.795 175.74 213.943 170.871L200.322 164.794L203.363 156.706ZM150.554 157.081L159.565 157.119C154.001 176.446 150.997 186.7 150.554 187.883C149.556 190.543 151.668 194.596 152.571 196.773C149.63 198.189 149.943 192.945 146.234 194.802C142.848 196.497 140.272 199.569 136.36 196.971C135.879 196.652 135.352 195.45 136.625 194.51C139.798 192.169 144.37 188.072 144.987 186.724C145.83 184.885 147.685 175.004 150.554 157.081Z" fill="url(#paint7_linear)"/>
<path fill-rule="evenodd" clip-rule="evenodd" d="M176.161 116.396L179.89 115.707C193.724 128.567 199.406 153.271 216.363 166.358L212.281 171.802C182.864 167.883 175.573 137.749 176.161 116.396Z" fill="url(#paint8_linear)"/>
<path fill-rule="evenodd" clip-rule="evenodd" d="M159.907 166.815C174.857 166.815 185.854 166.815 192.898 166.815C194.406 166.815 194.121 164.473 193.904 163.291C191.388 149.65 181.571 134.945 181.571 115.528L172.055 113.922C164.184 127.544 161.462 144.315 159.907 166.815Z" fill="white"/>
<path fill-rule="evenodd" clip-rule="evenodd" d="M160.173 127.312C158.791 126.884 157.696 125.887 156.89 124.32C153.411 117.567 154.668 113.849 158.385 112.627C162.102 111.405 165.416 113.922 171.339 113.922C171.661 113.922 171.956 113.944 172.224 113.987L175.203 114.17C183.75 145.34 186.107 166.137 182.275 176.559H156.308C154.77 180.419 153.298 183.667 151.892 186.303H144.816C144.15 163.135 149.269 143.471 160.173 127.312Z" fill="url(#paint9_linear)"/>
<path opacity="0.05" fill-rule="evenodd" clip-rule="evenodd" d="M161.962 160.551C162.779 167.903 164.106 173.239 165.944 176.559H156.308C158.102 172.056 159.987 166.72 161.962 160.551H161.962Z" fill="#1F2331"/>
<rect x="262.321" y="83.0107" width="37.6889" height="3.53333" rx="1.76667" fill="white"/>
<rect x="262.321" y="169.578" width="37.6889" height="3.53333" rx="1.76667" fill="white"/>
<rect x="342.41" y="169.578" width="37.6889" height="3.53333" rx="1.76667" fill="white"/>
<rect x="262.321" y="90.667" width="23.5556" height="3.53333" rx="1.76667" fill="white"/>
<rect x="262.321" y="177.233" width="23.5556" height="3.53333" rx="1.76667" fill="white"/>
<rect x="342.41" y="177.233" width="23.5556" height="3.53333" rx="1.76667" fill="white"/>
<circle cx="288.822" cy="58.8666" r="10.6" fill="white"/>
<circle cx="209.911" cy="58.8666" r="10.6" fill="white"/>
<circle cx="367.733" cy="151.911" r="10.6" fill="white"/>
<circle cx="177.522" cy="25.8888" r="2.94444" fill="#E6E8F0"/>
<circle cx="188.121" cy="25.8888" r="2.94444" fill="#E6E8F0"/>
<circle cx="198.722" cy="25.8888" r="2.94444" fill="#E6E8F0"/>
<defs>
<linearGradient id="paint0_linear" x1="478.705" y1="57.002" x2="473.931" y2="88.1489" gradientUnits="userSpaceOnUse">
<stop stop-color="#FFC5B9"/>
<stop offset="1" stop-color="#FF9684"/>
<stop offset="1" stop-color="#FFB1A4"/>
</linearGradient>
<linearGradient id="paint1_linear" x1="495.47" y1="128.196" x2="449.737" y2="200.968" gradientUnits="userSpaceOnUse">
<stop stop-color="#FFC5B9"/>
<stop offset="1" stop-color="#FF9684"/>
<stop offset="1" stop-color="#FFB1A4"/>
</linearGradient>
<linearGradient id="paint2_linear" x1="510.774" y1="128.196" x2="469.372" y2="209.559" gradientUnits="userSpaceOnUse">
<stop stop-color="#FFC5B9"/>
<stop offset="1" stop-color="#FF9684"/>
<stop offset="1" stop-color="#FFB1A4"/>
</linearGradient>
<linearGradient id="paint3_linear" x1="453.795" y1="89.3969" x2="453.939" y2="120.861" gradientUnits="userSpaceOnUse">
<stop stop-color="#FFC5B9"/>
<stop offset="1" stop-color="#FF9684"/>
<stop offset="1" stop-color="#FFB1A4"/>
</linearGradient>
<linearGradient id="paint4_linear" x1="462.241" y1="111.877" x2="481.831" y2="91.6031" gradientUnits="userSpaceOnUse">
<stop stop-color="#6A4EE1"/>
<stop offset="1" stop-color="#B87DF9"/>
</linearGradient>
<linearGradient id="paint5_linear" x1="454.418" y1="154.55" x2="523.042" y2="92.3047" gradientUnits="userSpaceOnUse">
<stop stop-color="#6A4EE1"/>
<stop offset="1" stop-color="#B87DF9"/>
</linearGradient>
<linearGradient id="paint6_linear" x1="178.625" y1="90.3096" x2="189.837" y2="119.937" gradientUnits="userSpaceOnUse">
<stop stop-color="#FFC5B9"/>
<stop offset="1" stop-color="#FF9684"/>
<stop offset="1" stop-color="#FFB1A4"/>
</linearGradient>
<linearGradient id="paint7_linear" x1="178.101" y1="156.706" x2="181.848" y2="197.632" gradientUnits="userSpaceOnUse">
<stop stop-color="#FFC5B9"/>
<stop offset="1" stop-color="#FF9684"/>
<stop offset="1" stop-color="#FFB1A4"/>
</linearGradient>
<linearGradient id="paint8_linear" x1="198.209" y1="117.432" x2="193.259" y2="170.011" gradientUnits="userSpaceOnUse">
<stop stop-color="#FF9B21"/>
<stop offset="1" stop-color="#FF541E"/>
</linearGradient>
<linearGradient id="paint9_linear" x1="164.407" y1="112.292" x2="164.407" y2="186.303" gradientUnits="userSpaceOnUse">
<stop stop-color="#FF9B21"/>
<stop offset="1" stop-color="#FF541E"/>
</linearGradient>
</defs>
</svg>
