<svg width="24" height="32" viewBox="0 0 24 32" fill="none" xmlns="http://www.w3.org/2000/svg">
<path d="M23.0625 6.125L17.875 0.875C17.3125 0.3125 16.5 0 15.75 0H3C1.3125 0 0 1.375 0 3V29C0 30.6875 1.3125 32 3 32H21C22.625 32 24 30.6875 24 29V8.25C24 7.5 23.625 6.6875 23.0625 6.125ZM21.6875 7.5625C21.8125 7.6875 21.875 7.875 21.9375 8H16V2.0625C16.125 2.125 16.3125 2.1875 16.4375 2.3125L21.6875 7.5625ZM21 30H3C2.4375 30 2 29.5625 2 29V3C2 2.5 2.4375 2 3 2H14V8.5C14 9.375 14.625 10 15.5 10H22V29C22 29.5625 21.5 30 21 30Z" fill="#9165F7"/>
</svg>
